<?xml version="1.0" encoding="UTF-8" standalone="no"?>
<!-- Created with Inkscape (http://www.inkscape.org/) -->
<svg xmlns="http://www.w3.org/2000/svg" xmlns:svg="http://www.w3.org/2000/svg" version="1.1" id="svg2" xml:space="preserve" width="1000" height="44.153175" viewBox="0 0 999.99997 44.153173">
  <defs id="defs6">
    <clipPath clipPathUnits="userSpaceOnUse" id="clipPath56">
      <path d="M 0,0 H 1280 V 800 H 0 Z" id="path54"/>
    </clipPath>
    <clipPath clipPathUnits="userSpaceOnUse" id="clipPath64">
      <path d="M 32768,32768 H -32768 V -32768 H 32768 Z" id="path62"/>
    </clipPath>
  </defs>
  <g id="g8" transform="matrix(1.3333333,0,0,-1.3333333,-353.3333,305.17005)">
    <path d="m 267.6565,196.42949 h -1.98969 v 31.78104 h 1.98969 z" style="fill:#ffffff;fill-opacity:1;fill-rule:nonzero;stroke:#ffffff;stroke-width:1.33365;stroke-linecap:round;stroke-linejoin:round;stroke-miterlimit:10;stroke-dasharray:none;stroke-opacity:1" id="path10"/>
    <g id="g12" transform="matrix(0.89868363,0,0,0.89868363,364.52022,228.21053)">
      <path d="M 0,0 H 2.493 V -30.166 L 17.67,0 h 2.538 V -35.364 H 17.67 V -5.246 L 2.515,-35.364 H 0 Z" style="fill:#ffffff;fill-opacity:1;fill-rule:nonzero;stroke:none" id="path14"/>
    </g>
    <g id="g16" transform="matrix(0.89868363,0,0,0.89868363,364.52022,228.21053)">
      <path d="M 0,0 H 2.493 V -30.166 L 17.67,0 h 2.538 V -35.364 H 17.67 V -5.246 L 2.515,-35.364 H 0 Z" style="fill:none;stroke:#ffffff;stroke-width:1.484;stroke-linecap:round;stroke-linejoin:round;stroke-miterlimit:10;stroke-dasharray:none;stroke-opacity:1" id="path18"/>
    </g>
    <g id="g20" transform="matrix(0.89868363,0,0,0.89868363,492.47686,211.22865)">
      <path d="m 0,0 h -12.311 v -16.467 h -2.506 V 18.896 H 1.846 V 16.274 H -12.311 V 2.623 H 0 Z" style="fill:#ffffff;fill-opacity:1;fill-rule:nonzero;stroke:none" id="path22"/>
    </g>
    <g id="g24" transform="matrix(0.89868363,0,0,0.89868363,492.47686,211.22865)">
      <path d="m 0,0 h -12.311 v -16.467 h -2.506 V 18.896 H 1.846 V 16.274 H -12.311 V 2.623 H 0 Z" style="fill:none;stroke:#ffffff;stroke-width:1.484;stroke-linecap:round;stroke-linejoin:round;stroke-miterlimit:10;stroke-dasharray:none;stroke-opacity:1" id="path26"/>
    </g>
    <path d="m 591.01365,196.42949 h -1.98968 v 31.78104 h 1.98968 z" style="fill:#ffffff;fill-opacity:1;fill-rule:nonzero;stroke:#ffffff;stroke-width:1.33365;stroke-linecap:round;stroke-linejoin:round;stroke-miterlimit:10;stroke-dasharray:none;stroke-opacity:1" id="path28"/>
    <g id="g30" transform="matrix(0.89868363,0,0,0.89868363,687.87764,228.21053)">
      <path d="M 0,0 H 2.493 V -30.166 L 17.67,0 h 2.538 V -35.364 H 17.67 V -5.246 L 2.515,-35.364 H 0 Z" style="fill:#ffffff;fill-opacity:1;fill-rule:nonzero;stroke:none" id="path32"/>
    </g>
    <g id="g34" transform="matrix(0.89868363,0,0,0.89868363,687.87764,228.21053)">
      <path d="M 0,0 H 2.493 V -30.166 L 17.67,0 h 2.538 V -35.364 H 17.67 V -5.246 L 2.515,-35.364 H 0 Z" style="fill:none;stroke:#ffffff;stroke-width:1.484;stroke-linecap:round;stroke-linejoin:round;stroke-miterlimit:10;stroke-dasharray:none;stroke-opacity:1" id="path36"/>
    </g>
    <path d="m 804.93091,196.42949 h -1.98968 v 31.78104 h 1.98968 z" style="fill:#ffffff;fill-opacity:1;fill-rule:nonzero;stroke:#ffffff;stroke-width:1.33365;stroke-linecap:round;stroke-linejoin:round;stroke-miterlimit:10;stroke-dasharray:none;stroke-opacity:1" id="path38"/>
    <g id="g40" transform="matrix(0.89868363,0,0,0.89868363,917.69684,225.85347)">
      <path d="m 0,0 h -9.138 v -32.741 h -2.538 V 0 H -20.79 V 2.623 H 0 Z" style="fill:#ffffff;fill-opacity:1;fill-rule:nonzero;stroke:none" id="path42"/>
    </g>
    <g id="g44" transform="matrix(0.89868363,0,0,0.89868363,917.69684,225.85347)">
      <path d="m 0,0 h -9.138 v -32.741 h -2.538 V 0 H -20.79 V 2.623 H 0 Z" style="fill:none;stroke:#ffffff;stroke-width:1.484;stroke-linecap:round;stroke-linejoin:round;stroke-miterlimit:10;stroke-dasharray:none;stroke-opacity:1" id="path46"/>
    </g>
    <path d="m 1014.3332,196.42949 h -1.9897 v 31.78104 h 1.9897 z" style="fill:#ffffff;fill-opacity:1;fill-rule:nonzero;stroke:#ffffff;stroke-width:1.33365;stroke-linecap:round;stroke-linejoin:round;stroke-miterlimit:10;stroke-dasharray:none;stroke-opacity:1" id="path48"/>
    <g id="g50" transform="matrix(0.89868363,0,0,0.89868363,64.842476,21.511502)">
      <g id="g52" clip-path="url(#clipPath56)">
        <g id="g58">
          <g id="g60"/>
          <g id="g70">
            <g clip-path="url(#clipPath64)" opacity="0.5" id="g68">
              <g id="g66"/>
            </g>
          </g>
        </g>
      </g>
    </g>
  </g>
</svg>
