<?xml version="1.0" encoding="utf-8"?>
<!-- Generator: Adobe Illustrator 24.0.0, SVG Export Plug-In . SVG Version: 6.00 Build 0)  -->
<svg xmlns="http://www.w3.org/2000/svg" xmlns:xlink="http://www.w3.org/1999/xlink" version="1.1" id="Layer_1" x="0px" y="0px" viewBox="0 0 780 371.3" style="enable-background:new 0 0 780 371.3;" xml:space="preserve">
<style type="text/css">
	.st0{fill:#E4DE1A;}
</style>
<path id="_x3C_S_x3E_" class="st0" d="M142.4,108.9c-1-2.3-5.3-12.2-15.6-20.8c-6-5-11.6-7.6-15.7-9.4c-6.6-3-13.3-5-19.6-6.8  c-3.9-1.1-8.8-2.5-15.1-5.5c-6.1-2.9-7.5-4.5-8.3-6.2c-1.8-4-0.2-9.4,3-12.4c0.7-0.6,2.9-2.6,7.4-3.2c12.6-1.7,28.1,8.8,31.6,11.2  c9.1-12.2,18.1-24.4,27.2-36.5c-0.2-0.2-0.6-0.4-1-0.8c-5.2-3.9-17.7-13.1-35.7-16.9c-3.2-0.7-17-3.4-34.6,0.2  c-9.6,1.9-23.8,4.8-36.6,16.9c-16,15.2-18.6,34.2-19,37.8c-0.6,5.2-2.5,22.9,8.4,39.3c9,13.6,23.1,20.6,31.3,23.2  c12.9,4,15.5,4.7,15.5,4.7c5.2,1.4,8.9,2.3,13.9,4.7c5.2,2.5,7.9,3.8,9.3,6.7c2.2,4.7,0.4,11.6-4.1,14.7c-4.3,2.8-9.4,1.3-13.8,0  c-6.2-1.8-11-5.4-15.7-8.8c-1.4-1.1-4.9-3.6-9.9-6.1c-0.8-0.4-1.7-0.8-2.8-1.3c-3.7-1.5-7.2-2.9-11.4-2.2c-2.7,0.4-5.5,1.7-8.8,4.6  C11.8,144.8,1.7,164.1,0,167.5c0,0,3.7,3.8,5.1,5.2c1.5,1.7,7,6.5,12.7,10.4c13.7,9.3,29.7,13.6,29.7,13.6  c15.3,4.2,27.7,3.6,30.5,3.4c8.3-0.5,21.2-1.4,35-9.4c13.2-7.7,20.3-17.9,22.8-21.7c10.9-16.8,11-33.8,10.7-40.6  C146.3,124.2,145.8,117.2,142.4,108.9z"/>
<path id="_x3C_K_x3E_" class="st0" d="M277.1,92.7c0.9-1,1.9-2.1,2.7-3.2l64.1-88.3h-73.2L222,69.9l-0.2-68.7h-62.6v196.1h62.1  v-74.2c2.8,3.8,7.6,10.3,13.4,18.4c0,0,8,11.2,30.5,43.6l0,0c1.2,1.7,2.7,2.6,4,4c1.6,1.7,3.7,2.9,5.9,4.1c2.1,1.2,4.7,2.4,7.3,2.9  c2.3,0.5,4.5,1.2,7.6,1.2h55.8C345.7,197.2,279.3,94.9,277.1,92.7z"/>
<path id="_x3C_A_x3E_" class="st0" d="M478.3,1.2h-53.4l-74.7,196.1h23.9h40.1l13.8-39.2l49.4-0.1l7.8,24c1.6,4.6,4.5,8.5,8.6,11.5  s9,4.4,14.8,4.4h46.7L478.3,1.2z M443.5,110.5l8.8-26l8.8,26H443.5z"/>
<path id="_x3C_M_x3E_" class="st0" d="M729.2,1.9c-2.6,0-5.1,0.5-7.4,1.4c-2.4,1-4.6,2.4-6.5,4.2c-1.6,1.6-3.1,3.7-4.3,6.2l-44.1,87  L616.5,2h-12h-46.2v195.5h57.1l0.2-79.8l39.3,59.8l12.4,18.5l12-18.1l39.6-59.2l0.2,78.9h56.4V1.9H729.2L729.2,1.9z"/>
<polygon id="_x3C_F_x3E_" class="st0" points="116.9,217.7 116.9,225.9 32.4,225.9 32.4,285.6 108.6,285.6 108.6,293.8 32.4,293.8   32.4,367.8 23.4,367.8 23.4,217.7 "/>
<path id="_x3C_R_x3E_" class="st0" d="M241,364.2c-0.8-1.5-1.3-2.9-1.6-4.1c-0.4-1.4-0.7-3-0.9-4.7c-0.1-0.7-0.1-1.3-0.2-2  c0-8.8,0-17.6,0-26.4c0-3.1-0.4-9.6-4.4-16.5c-1.2-2.1-5.9-9.6-15.4-13.4c-3.8-1.6-7.3-2-9.6-2.2c3.6-0.4,11.9-1.8,19.2-8.1  c9.6-8.2,11.3-19.3,12.1-24.2c0.6-3.8,2.2-14.3-2.7-24.2c-6.6-13.3-22.7-21.2-40.8-20.8l-65.5,0.1v150h9v-67.8h59.6  c4,0.8,8.1,1.5,12.1,2.3c2.3,0.7,6.1,2.3,9.5,5.9c1.9,1.9,3.5,4.3,5,7.9c3.8,9.4,3.2,19,2.8,36.7c0,0.8-0.1,3,0.4,5.7  c0.3,1.9,0.7,3.5,1.2,4.9c0.2,0.7,0.4,1.5,0.9,2.4s1,1.6,1.4,2.1c3.4,0,6.8,0,10.2,0C242.6,366.9,241.8,365.7,241,364.2z   M196.8,290.8h-56.5v-64.9c18.8,0,37.6,0,56.3,0c16.4,0,23.8,6.1,28.8,12.6c5.8,7.6,5.9,16.4,5.9,19.4c0,3.2-0.5,17.2-12.3,26.4  C210,291.5,199.7,291.1,196.8,290.8z"/>
<path id="_x3C_A_x3E__1_" class="st0" d="M318.3,217.7h-10.5l-60.4,150.1h9.8l19.7-48.3h71.5l19,48.3h9.9L318.3,217.7z M279.8,311  l33.2-83.6l31.7,83.6H279.8z"/>
<polygon id="_x3C_N_x3E_" class="st0" points="387.8,367.8 396.8,367.8 396.8,228.9 492.6,367.7 503.9,367.8 503.9,217.6   494.9,217.6 494,354.9 399.1,217.6 387.8,217.6 "/>
<path id="_x3C_C_x3E_" class="st0" d="M649.5,308.9h9.2c-0.4,5.9-2.5,24-16.7,40c-3.4,3.8-19.4,21-45.8,22.3  c-26.6,1.3-44.6-14.5-50.6-20.4c-21.9-21.7-21.2-50.4-20.9-59.7c0.2-8.8,1-38.6,24.7-59.5c4.4-3.9,20.5-17,44.5-17.6  c5.7-0.1,30.5-0.7,48.1,18.5c10.4,11.4,13.3,24.2,14.3,30.3c-3-0.2-6-0.5-9-0.7c-1-5-4-16.8-14.3-26.6  c-14.9-14.3-33.9-13.7-39.3-13.6c-20.3,0.6-33.9,11.6-38.4,15.5c-20.5,18.2-21.4,44.1-21.7,53c-0.3,9.6-1.1,32.2,15.5,51.3  c4.4,5,21.6,23,47.7,21.5c21.7-1.2,35.2-15,37.5-17.5C648.3,330.9,649.4,313.3,649.5,308.9z"/>
<polygon id="_x3C_E_x3E_" class="st0" points="678.2,217.7 678.2,367.8 780,367.8 780,360.2 687.2,360.2 687.2,293.8 773.9,293.8   774,286.3 687.2,286.3 687.2,225.2 778.5,225.2 778.5,217.7 "/>
</svg>
