<?xml version="1.0" encoding="UTF-8" standalone="no"?>
<!-- Created with Inkscape (http://www.inkscape.org/) -->
<svg xmlns:dc="http://purl.org/dc/elements/1.1/" xmlns:cc="http://creativecommons.org/ns#" xmlns:rdf="http://www.w3.org/1999/02/22-rdf-syntax-ns#" xmlns:svg="http://www.w3.org/2000/svg" xmlns="http://www.w3.org/2000/svg" xmlns:sodipodi="http://sodipodi.sourceforge.net/DTD/sodipodi-0.dtd" xmlns:inkscape="http://www.inkscape.org/namespaces/inkscape" width="259.10904mm" height="91.550529mm" viewBox="0 0 259.10904 91.550529" version="1.1" id="svg4733">
  <defs id="defs4727"/>
  
  <metadata id="metadata4730">
    
  </metadata>
  <g id="layer1" transform="translate(-0.22299688,-134.41469)">
    <path style="opacity:1;fill:#ed174c;fill-opacity:1;stroke:#ed174c;stroke-width:0.2;stroke-miterlimit:4;stroke-dasharray:none;stroke-opacity:1" d="m 15.705964,142.70713 c -4.011683,0.0685 -8.3159386,-0.0985 -11.9609736,1.84153 -2.4438242,1.6639 -3.28504422,4.85782 -3.26652872,7.67381 -0.073048,5.42055 -0.306094,10.86038 0.081879,16.27158 0.3999568,3.5472 2.38352312,7.02013 5.69586012,8.57505 3.8602942,2.38645 8.0337222,4.29444 11.7385182,6.9122 1.671916,1.2689 1.057322,3.64302 1.230705,5.44316 -0.09829,3.45958 0.233884,6.96137 -0.239482,10.39583 -0.455716,1.57488 -3.375613,1.59996 -3.630639,-0.13067 -0.419814,-4.77477 -0.196284,-9.59009 -0.346597,-14.38029 0.427111,-1.56061 -1.610651,-0.64368 -2.47783,-0.89671 -3.9833402,0.0591 -7.9952522,-0.24059 -11.96278382,0.10849 -0.3277073,0.88812 -0.071672,2.054 -0.1893663,3.0249 0.016534,5.74094 -0.2606297,11.50828 0.2875516,17.23079 0.3149352,2.4093 1.37973402,4.91488 3.66127532,6.05906 4.303885,2.18442 9.3169332,1.45953 13.9674002,1.64764 3.987189,-0.1363 8.323862,0.38352 11.955345,-1.61811 2.362319,-1.55501 3.388513,-4.45496 3.269556,-7.19488 0.09767,-7.1063 0.228709,-14.22223 -0.0254,-21.32571 -0.0819,-2.7503 -1.528696,-5.29827 -3.686217,-6.9671 -3.451635,-2.64866 -7.578821,-4.22238 -11.275694,-6.48506 -1.730741,-0.7675 -3.587063,-2.20154 -3.397247,-4.31788 0.0057,-3.11457 -0.129,-6.26093 0.205968,-9.35676 0.405038,-1.41022 2.582911,-1.40873 3.380377,-0.36949 0.791693,1.80968 0.364442,3.91339 0.506994,5.84018 0.0088,2.15645 -0.01337,4.32429 0.01125,6.47358 4.821198,-0.0399 9.653839,-0.0524 14.467924,-0.10926 -0.08886,-5.7226 0.18043,-11.46172 -0.198217,-17.17392 -0.402326,-2.79327 -2.334837,-5.35467 -5.128517,-6.08971 -4.08374,-1.3206 -8.448399,-1.00097 -12.67512,-1.08225 z" id="path4575"/>
    <path style="opacity:1;fill:#ed174c;fill-opacity:1;stroke:#ed174c;stroke-width:0.07142857;stroke-miterlimit:4;stroke-dasharray:none;stroke-opacity:1" d="m 54.526677,149.8653 c -2.671209,0.0116 -5.371817,-0.0612 -7.988009,0.57485 -1.717638,0.38969 -3.600439,0.83521 -4.765638,2.27046 -1.101304,1.11863 -1.714365,2.5995 -1.999847,4.12344 -0.422731,1.7585 -0.518661,3.56535 -0.477745,5.3677 -0.04893,13.15135 -0.07731,26.30344 0.02379,39.45453 0.144333,1.71526 0.365826,3.45717 0.918739,5.09388 0.59894,1.91939 2.027187,3.56314 3.893709,4.34187 0.604983,0.25349 1.205246,0.51077 1.854739,0.62534 2.080507,0.54152 4.261446,0.52483 6.396168,0.64325 3.10121,0.0525 6.219102,0.14062 9.308954,-0.17334 1.079815,-0.11174 2.148576,-0.31086 3.194058,-0.57917 0.577519,-0.14906 1.139426,-0.38006 1.713256,-0.55884 1.282489,-0.47198 2.314692,-1.4371 3.000624,-2.60792 0.642125,-0.9447 0.891651,-2.06853 1.157854,-3.15714 0.218038,-1.06339 0.361492,-2.13479 0.34667,-3.22483 0.231048,-11.00068 0.173048,-22.0052 0.177298,-33.00772 -0.05585,-3.42115 0.07258,-6.85728 -0.265401,-10.26626 -0.285113,-1.62401 -0.445998,-3.33862 -1.361858,-4.7583 -0.595032,-1.08988 -1.475822,-1.99627 -2.563347,-2.60042 -0.563499,-0.38524 -1.227349,-0.54083 -1.854621,-0.78328 -1.453727,-0.40268 -2.96767,-0.57456 -4.470011,-0.70741 -2.078773,-0.0727 -4.159586,-0.069 -6.239375,-0.0707 z m 0.761304,10.81865 c 0.449533,0.0396 1.057699,0.0662 1.338789,0.45881 0.742067,1.00094 0.498565,2.34659 0.578694,3.51594 0.06993,11.04908 0.08212,22.09883 0.05321,33.14809 -0.08877,0.89129 0.137125,1.86402 -0.227532,2.70528 -0.461293,1.17091 -2.276104,1.60893 -3.076037,0.55313 -0.399447,-0.45045 -0.691685,-0.99158 -0.567518,-1.61249 0,-12.5439 0,-25.08779 0,-37.63169 0.428738,-0.65466 1.080264,-1.1787 1.900398,-1.13707 z" id="path4577"/>
    <path style="opacity:1;fill:#ed174c;fill-opacity:1;stroke:#ed174c;stroke-width:0.07142857;stroke-miterlimit:4;stroke-dasharray:none;stroke-opacity:1" d="m 125.38051,146.43574 c -0.70613,0.0699 -0.72049,0.9023 -0.99312,1.38566 -0.30859,0.71491 -0.99538,1.15498 -1.66176,1.47168 -0.93157,0.43106 -1.87612,0.91458 -2.87543,1.14998 -0.91192,-0.006 -1.69865,-0.74998 -2.64306,-0.51528 -0.67452,0.0942 -0.78514,0.96636 -0.53854,1.48311 0.15629,0.53095 0.13175,1.15366 -0.36808,1.49744 -0.37644,0.34974 -0.79648,0.76874 -0.68483,1.33424 0.0667,0.68253 -0.56387,1.05287 -0.99994,1.44713 -0.34042,0.38606 0.0319,0.87264 0.41489,1.04165 0.57355,0.31424 0.27338,1.05429 0.369,1.57405 0.0943,3.39947 -0.0656,6.80672 0.12802,10.2019 0.28278,1.69811 0.14702,3.45016 0.22646,5.16928 0.11355,10.93935 0.1313,21.88028 0.0478,32.81988 0.079,0.6317 -0.12865,1.26473 -0.66889,1.63244 -0.54216,0.44656 -1.13737,1.29168 -0.6718,1.9829 0.47058,0.62775 1.3169,1.03188 1.52963,1.8227 -0.10327,0.85158 0.89578,1.15024 1.57151,1.11954 0.6606,-0.0698 1.48107,0.21669 2.03329,-0.2582 0.42539,-0.33311 0.0628,-1.18108 0.71206,-1.19295 1.71833,-0.4574 3.52847,-0.20779 5.28538,-0.34723 0.39114,-0.10052 0.95433,0.12222 1.25055,-0.21184 0.42673,-0.98257 0.0891,-2.14223 0.29146,-3.13839 0.40564,-0.45324 0.85041,-0.93468 0.82197,-1.5915 0.21721,-3.91853 0.10726,-7.84849 0.16902,-11.77168 0.0453,-3.95222 0.009,-7.90817 0.16301,-11.85753 0.15863,-1.03701 0.0343,-2.19886 0.76666,-3.05886 0.63322,-0.76836 1.57914,-1.23653 2.4801,-1.61287 0.70165,-0.24897 1.38538,-0.54734 2.10526,-0.7434 0.59652,-0.18681 1.38569,0.0967 1.86053,-0.38997 0.56984,-1.27787 0.97157,-2.6393 1.35762,-3.98573 0.32503,-1.41401 0.41146,-2.90275 0.21704,-4.341 -0.14993,-1.28477 -0.94092,-2.35304 -1.25168,-3.5845 0.0233,-0.96713 0.79263,-1.81053 1.671,-2.15454 1.11726,-0.48986 2.34064,-0.66258 3.47136,-1.10514 2.45437,-0.58918 5.01163,-0.21079 7.47813,-0.68748 0.71692,-0.1198 0.46879,-1.01369 0.49259,-1.51633 -0.2393,-2.974 -0.47521,-5.94895 -0.58782,-8.93154 0.25701,-0.48872 0.75711,-1.26817 0.15448,-1.714 -0.49281,-0.32289 -1.12945,-0.50816 -1.34248,-1.12581 -0.46916,-0.64704 -1.41788,-0.36076 -2.09345,-0.44462 -1.91345,-0.0859 -3.8017,0.35005 -5.55873,1.08707 -1.72733,0.65235 -3.50873,1.11902 -5.25697,1.71567 -1.53762,0.57109 -3.12835,1.11222 -4.79354,1.05419 -1.01199,0.0381 -2.23332,-0.20297 -2.68404,-1.23192 -0.63921,-1.01632 -0.44001,-2.32481 -1.03924,-3.34606 -0.0929,-0.092 -0.22511,-0.14084 -0.35546,-0.13214 z m 5.74162,17.55707 c 1.27167,-0.0402 2.28294,1.00409 2.88612,2.02442 0.81935,1.42283 0.79127,3.14782 0.76426,4.738 -0.35427,1.47559 -0.96686,3.00879 -2.15129,4.01366 -0.94951,0.77077 -2.30358,0.97351 -3.42054,0.44933 -0.95391,-0.34895 -1.80847,-1.10523 -1.93039,-2.16561 -0.18098,-1.04522 -0.0428,-2.12746 -0.0531,-3.1853 0.68793,-0.78896 1.85584,-0.37167 2.66116,-0.0231 0.72919,0.40313 1.63758,0.80257 1.98511,1.60861 0.15609,0.37799 0.2129,0.9992 0.65721,1.13615 0.56781,0.0343 0.5627,-0.63645 0.50551,-1.03095 -0.0173,-1.46442 -1.29918,-2.44381 -2.38893,-3.20596 -0.88514,-0.67498 -2.08623,-0.7411 -2.89923,-1.52852 -0.66398,-0.59118 -0.0847,-1.60773 0.47579,-2.04823 0.79089,-0.75142 1.87274,-0.82712 2.90828,-0.78253 z" id="path4579"/>
    <path style="opacity:1;fill:#ed174c;fill-opacity:1;stroke:#ed174c;stroke-width:0.07142857;stroke-miterlimit:4;stroke-dasharray:none;stroke-opacity:1" d="m 99.056722,149.88145 c -1.14252,0.0209 -2.31549,-0.0202 -3.39902,0.39496 -1.4702,0.3947 -2.73089,1.26556 -3.910428,2.19459 -0.167415,0.12607 -0.632415,0.28643 -0.501198,-0.1297 -0.08585,-0.64944 0.102106,-1.40602 -0.201787,-2.00103 -1.398654,-0.21405 -2.841207,-0.0724 -4.255365,-0.12408 -3.08251,0.0273 -6.171465,-0.0721 -9.2499,0.0888 -0.233471,0.14076 -0.02895,0.59823 -0.113548,0.83271 -0.117467,14.15377 -0.05622,28.30853 -0.07377,42.46271 0.01357,10.75061 -0.0109,21.50178 0.062,32.252 4.076094,0.12086 8.175302,0.0681 12.260011,0.0498 0.482442,-0.0591 1.052052,0.0722 1.49275,-0.13197 0.171186,-3.08396 0.06323,-6.1821 0.09521,-9.27149 0.01569,-2.35142 -0.037,-4.71489 0.02162,-7.05918 0.714106,0.2386 1.167226,0.98998 1.893255,1.25645 1.47582,0.86344 3.11696,1.43857 4.82963,1.55672 2.879348,0.28659 6.074788,-0.31641 8.117108,-2.51677 1.98147,-1.94565 2.63678,-4.77766 3.07586,-7.42147 0.27649,-3.9587 0.15199,-7.93369 0.20048,-11.89942 -0.0178,-9.44942 0.0681,-18.90017 -0.0858,-28.34865 0.007,-1.90673 -0.35009,-3.7963 -0.89019,-5.6179 -0.24614,-0.43467 -0.26334,-0.96725 -0.53559,-1.40375 -0.75756,-1.78487 -2.07435,-3.38627 -3.80191,-4.29671 -1.27335,-0.53641 -2.63998,-0.91328 -4.0366,-0.86045 -0.330878,-0.007 -0.661858,-0.007 -0.992798,-0.006 z m -5.58309,11.871 c 0.86807,-0.0867 1.47699,0.68707 1.63907,1.46079 0.25375,1.40357 0.0925,2.85296 0.16159,4.27418 0.0454,10.27608 0.08,20.55349 -0.0619,30.82887 0.0633,1.09213 -0.85376,2.24977 -2.00929,2.11522 -0.61329,-0.0976 -1.300318,-0.33517 -1.486622,-1.00215 -0.392509,-0.9699 -0.174368,-2.07076 -0.279497,-3.09205 -0.101579,-10.52638 -0.09062,-21.05426 -0.0093,-31.58078 0.0055,-0.97511 -0.0054,-2.25815 1.015185,-2.75603 0.311333,-0.17813 0.674744,-0.24684 1.030764,-0.24805 z" id="path4581"/>
    <path style="opacity:1;fill:#ed174c;fill-opacity:1;stroke:#ed174c;stroke-width:0.07214285;stroke-linecap:square;stroke-miterlimit:0;stroke-dasharray:none;stroke-opacity:1" d="m 165.27711,149.86479 c -4.14089,0.0422 -8.87817,-0.17375 -12.19933,2.75657 -2.1237,1.98846 -2.21585,5.15703 -2.5159,7.85924 -0.0844,3.5374 -0.23259,7.1219 0.15503,10.63427 4.51219,0.27554 9.0642,0.0592 13.58057,0.0627 0.17844,-3.1097 -0.0449,-6.28523 0.52968,-9.35232 0.47788,-1.39996 2.7771,-1.57511 3.46132,-0.25561 0.57206,0.92601 0.0632,2.2404 0.21738,3.31656 -0.0238,2.47079 -0.0475,4.94159 -0.0713,7.41238 -4.78553,2.95001 -9.79691,5.56021 -14.39547,8.80251 -1.90209,1.40609 -3.16893,3.71221 -3.3934,6.05556 -0.0691,5.4775 -0.2267,10.97436 0.13836,16.44188 0.35999,2.92165 1.21655,6.30285 4.08582,7.7283 3.07869,1.54159 6.79415,1.27474 9.98499,0.23513 1.30313,-0.48492 2.53139,-1.15359 3.6742,-1.94341 0.16792,0.68347 -0.35477,1.90045 0.44589,2.30846 4.41347,0.21274 8.8608,0.28632 13.26977,0.0528 0.42262,-2.12756 0.15023,-4.39163 0.2629,-6.5662 -0.008,-14.76789 0.15935,-29.53971 -0.16563,-44.3049 -0.005,-3.32166 -0.57443,-7.17848 -3.44074,-9.29059 -3.70738,-2.37666 -8.34738,-1.79302 -12.53522,-1.95448 -0.36297,2.6e-4 -0.72593,7.9e-4 -1.0889,0.001 z m 2.77466,35.9845 c 0.65391,0.22951 0.32722,1.29356 0.46325,1.82078 -0.0122,4.21156 0.0807,8.44362 -0.25359,12.64124 -0.2542,1.34868 -2.04863,1.82523 -2.96402,0.83531 -1.14281,-0.6994 -0.45121,-2.25856 -0.70513,-3.37458 -0.0239,-3.17835 -0.41196,-6.46607 0.41021,-9.5711 0.65269,-1.09394 1.87005,-1.91846 3.04928,-2.35165 z" id="path4591"/>
    <path style="opacity:1;fill:#ed174c;fill-opacity:1;stroke:#ed174c;stroke-width:0.0510127;stroke-linecap:square;stroke-miterlimit:0;stroke-dasharray:none;stroke-opacity:1" d="m 211.07702,149.83747 c -2.72033,-0.10738 -5.34606,1.02094 -7.47964,2.63433 -0.42556,0.24161 -0.23442,-0.58489 -0.31607,-0.79685 -0.0428,-0.47689 0.10468,-1.50595 -0.68384,-1.38959 -4.37229,-0.15787 -8.75976,-0.20204 -13.12961,0.0211 -0.35879,0.11092 -0.0426,0.76236 -0.17176,1.03611 -0.19196,17.95867 -0.13926,35.91952 -0.0655,53.87887 0.0567,2.22505 -0.0439,4.50578 0.1412,6.70029 4.07318,0.27313 8.17175,0.15796 12.25347,0.0921 0.44139,-0.096 1.04161,0.0896 1.42086,-0.16835 0.28294,-2.73269 0.11717,-5.50545 0.18878,-8.25298 0.0404,-13.50821 0.045,-27.01649 0.0678,-40.52475 0.3798,-0.72015 0.98319,-1.4873 1.89986,-1.37445 1.22467,-0.15365 2.13668,1.09909 1.94109,2.2483 0.22882,14.64959 0.15662,29.30246 0.23839,43.95346 0.009,1.30904 -7.9e-4,2.62374 0.0192,3.92928 1.26049,0.39347 2.64154,0.13178 3.94665,0.23693 3.226,-0.0207 6.47731,0.10362 9.68827,-0.14402 0.33251,-1.09467 0.11451,-2.32958 0.20701,-3.47189 0.04,-15.69971 0.0773,-31.40062 -0.0812,-47.09972 -0.17023,-2.85849 -0.75227,-5.85539 -2.46206,-8.21567 -1.56398,-2.11988 -4.16264,-3.33609 -6.78405,-3.28371 -0.27954,-0.008 -0.55923,-0.011 -0.83887,-0.009 z" id="path4593"/>
    <path style="opacity:1;fill:#ed174c;fill-opacity:1;stroke:#ed174c;stroke-width:0.0510127;stroke-linecap:square;stroke-miterlimit:0;stroke-dasharray:none;stroke-opacity:1" d="m 241.40917,149.88871 c -3.58109,0.0159 -7.44356,0.008 -10.59342,1.9565 -2.20695,1.49086 -3.03166,4.27969 -3.28241,6.79892 -0.23448,8.89742 -0.14987,17.80104 -0.21463,26.7011 0.0403,6.00918 -0.13442,12.02997 0.2539,18.03011 0.27971,1.90181 0.68777,3.91379 1.84754,5.48988 1.42503,1.90546 3.74316,2.83158 6.03523,3.14668 4.9563,0.5608 9.981,0.52619 14.94505,0.0727 1.85967,-0.26404 3.78182,-0.6762 5.40215,-1.66409 2.5508,-1.81255 3.26899,-5.12339 3.40115,-8.06782 0.17948,-10.53505 0.0635,-21.07353 0.0905,-31.60995 -0.055,-4.08649 0.0897,-8.1842 -0.19461,-12.26282 -0.31511,-2.72481 -1.38918,-5.74968 -3.99861,-7.05132 -3.9605,-2.06285 -8.56948,-1.40386 -12.86156,-1.5423 -0.27675,7.9e-4 -0.5535,0.002 -0.83026,0.002 z m 1.87089,10.74559 c 1.36305,-0.001 2.24936,1.46006 2.03584,2.71054 -0.0336,12.00035 0.0744,24.00203 -0.0728,36.00151 0.0838,0.85264 -0.17339,1.94553 -1.12232,2.18488 -1.07307,0.36239 -2.59984,-0.2692 -2.55289,-1.5475 -0.20045,-7.869 -0.064,-15.74411 -0.1065,-23.6155 1e-5,-4.83295 0,-9.6659 0,-14.49885 0.4333,-0.60266 1.00276,-1.26274 1.81869,-1.23508 z" id="path4595"/>
    <rect style="fill:#ed174c;fill-opacity:1;fill-rule:evenodd;stroke-width:0.35162914" id="rect5346" width="2.5307934" height="12.187769" x="41.966545" y="134.48952"/>
    <rect style="fill:#ed174c;fill-opacity:1;fill-rule:evenodd;stroke-width:0.37803042" id="rect5348" width="3.0277388" height="1.5317889" x="44.089199" y="145.14552"/>
    <g transform="matrix(1.1505024,0,0,1.1505024,-21.333566,-22.002594)" id="g5356">
      <rect y="135.9818" x="64.640907" height="10.632317" width="2.6476386" id="rect4634-2" style="fill:#ed174c;fill-opacity:1;fill-rule:evenodd;stroke-width:0.26458332"/>
      <rect y="135.9818" x="67.114922" height="2.1371479" width="2.099257" id="rect4636-1" style="fill:#ed174c;fill-opacity:1;fill-rule:evenodd;stroke-width:0.27625459"/>
      <rect y="140.15837" x="66.942345" height="2.1371479" width="2.2705691" id="rect4636-3-6" style="fill:#ed174c;fill-opacity:1;fill-rule:evenodd;stroke-width:0.28730556"/>
      <rect y="144.47696" x="67.094246" height="2.1371479" width="2.1199276" id="rect4636-6-3" style="fill:#ed174c;fill-opacity:1;fill-rule:evenodd;stroke-width:0.27761135"/>
    </g>
    <path style="opacity:1;fill:#ed174c;fill-opacity:1;stroke:#ed174c;stroke-width:0.03334951;stroke-miterlimit:4;stroke-dasharray:none;stroke-opacity:1" d="m 66.626139,134.43161 c -0.634966,0.012 -1.316234,-0.0173 -1.893163,0.3235 -0.386816,0.2923 -0.519955,0.85337 -0.517018,1.34805 -0.01196,0.95224 -0.04851,1.90785 0.01329,2.85844 0.06339,0.62313 0.377261,1.23322 0.901522,1.50637 0.611004,0.41923 1.271566,0.75441 1.857971,1.21427 0.264629,0.22291 0.167333,0.63998 0.194777,0.95621 -0.01555,0.60774 0.03695,1.2229 -0.03788,1.82624 -0.07203,0.27664 -0.534295,0.28105 -0.574656,-0.023 -0.06645,-0.83878 -0.03097,-1.68469 -0.05489,-2.52618 0.06765,-0.27416 -0.254927,-0.1131 -0.392185,-0.15752 -0.630474,0.0106 -1.26548,-0.0423 -1.893455,0.019 -0.05183,0.15602 -0.01063,0.36083 -0.0299,0.5314 0.0027,1.0085 -0.0412,2.02166 0.04545,3.02692 0.04984,0.42325 0.218393,0.86341 0.579507,1.06441 0.681215,0.38373 1.474676,0.25639 2.210738,0.28944 0.631086,-0.0239 1.317483,0.0674 1.892259,-0.28426 0.373912,-0.27318 0.536328,-0.7826 0.51751,-1.26393 0.01542,-1.24836 0.03615,-2.49841 -0.0053,-3.74628 -0.01329,-0.48315 -0.241957,-0.93074 -0.583441,-1.22391 -0.546322,-0.46529 -1.199575,-0.74175 -1.784704,-1.13924 -0.273931,-0.13482 -0.567758,-0.38675 -0.53771,-0.75852 7.03e-4,-0.54713 -0.02047,-1.09986 0.03269,-1.6437 0.06406,-0.24773 0.408825,-0.24747 0.535039,-0.0648 0.125324,0.31791 0.05768,0.68747 0.08027,1.02596 0.0012,0.37881 -0.0027,0.75965 0.0027,1.1372 0.763094,-0.007 1.527996,-0.009 2.28996,-0.0193 -0.01395,-1.00529 0.02857,-2.01349 -0.03136,-3.01696 -0.06367,-0.49069 -0.369578,-0.94065 -0.81176,-1.06977 -0.646342,-0.23199 -1.337192,-0.17584 -2.00618,-0.19013 z" id="path4575-5"/>
  </g>
</svg>
