<?xml version="1.0" encoding="UTF-8" standalone="no"?>
<!-- Created with Inkscape (http://www.inkscape.org/) -->
<svg xmlns="http://www.w3.org/2000/svg" xmlns:svg="http://www.w3.org/2000/svg" version="1.1" id="svg3270" width="968.34711" height="737.04279" viewBox="0 0 968.34711 737.04279">
  <defs id="defs3274"/>
  <g id="g3276" transform="translate(-478.0172,-170.78578)">
    <path style="fill:#f3e524;fill-opacity:1" d="m 841,906.99116 c -12.375,-0.34412 -22.66258,-0.7079 -22.86129,-0.80841 -0.67846,-0.34318 0.89412,-6.87272 8.25494,-34.2755 4.04912,-15.07399 10.84187,-40.45725 15.09502,-56.40725 4.25314,-15.95 10.57142,-39.575 14.04061,-52.5 6.02408,-22.44359 14.45402,-54.15912 33.0919,-124.5 4.66339,-17.6 10.22549,-38.525 12.36023,-46.5 C 909.49776,560.18446 914,542.24466 914,540.12564 c 0,-1.22469 -4.01676,-15.59146 -8.92614,-31.92617 C 897.14293,481.81132 885.14,440.02426 873.13289,397 c -3.74776,-13.42911 -18.05665,-66.12587 -32.17661,-118.5 -3.26213,-12.1 -11.03479,-40.80854 -17.27257,-63.79676 -6.23778,-22.98821 -11.08093,-41.94765 -10.76256,-42.13207 0.31837,-0.18443 17.94835,-0.66159 39.17774,-1.06035 l 38.5989,-0.72504 39.79046,159.35711 c 21.88476,87.64641 40.12137,159.72822 40.5258,160.18181 0.40444,0.45358 1.04789,-0.89642 1.42989,-3 4.63953,-25.54888 24.5892,-112.4794 51.02126,-222.3247 4.0365,-16.775 10.5772,-44.225 14.5347,-61 3.9575,-16.775 7.3869,-31.12632 7.6208,-31.89183 0.3589,-1.17418 6.403,-1.27723 38.6523,-0.65901 21.0249,0.40305 38.314,0.81642 38.4204,0.9186 0.1812,0.17403 -14.301,53.66081 -31.1736,115.13224 -4.076,14.85 -14.6655,53.55 -23.5322,86 -16.9992,62.21291 -21.6071,78.97417 -35.4324,128.88489 -4.7054,16.98669 -8.5552,31.7252 -8.5552,32.75225 0,1.02705 2.9005,12.55385 6.4456,25.61511 3.545,13.06126 12.5116,46.24775 19.9258,73.74775 7.4141,27.5 17.3107,64.175 21.9923,81.5 4.6816,17.325 12.6407,46.8 17.6868,65.5 5.0462,18.7 11.3648,42.1 14.0415,52 15.2188,56.28813 19.1534,71.58797 18.5621,72.17926 -0.814,0.814 -80.5635,2.74472 -81.339,1.9692 -0.6166,-0.61661 -5.5522,-21.94592 -18.7779,-81.14846 -27.71256,-124.05075 -36.28404,-162.25894 -44.19422,-197 -4.13257,-18.15 -7.70034,-33.1875 -7.92837,-33.41667 -0.71344,-0.71698 -1.01013,0.16387 -3.34017,9.91667 -3.23003,13.51985 -64.05173,258.56852 -69.99311,282 l -4.9445,19.5 -14.31842,0.0584 C 869.94329,907.59054 853.375,907.33528 841,906.99116 Z M 756,541.07959 v -214.9204 l 6.25,-0.63212 c 3.4375,-0.34767 19.3,-0.49598 35.25,-0.32959 l 29,0.30252 0.65369,6.5 c 0.35952,3.575 0.99299,100.4375 1.4077,215.25 L 829.31541,756 H 792.6577 756 Z m 423.3358,213.87362 c -11.0904,-0.40103 -20.716,-1.07012 -21.3902,-1.48686 -0.9445,-0.58369 -1.0823,-6.98229 -0.6002,-27.86203 0.3442,-14.90737 0.737,-93.92932 0.8729,-175.60432 l 0.247,-148.5 -33.3633,-0.26364 -33.3633,-0.26365 0.7422,-26.23635 c 0.4082,-14.43 1.0295,-31.18636 1.3807,-37.23636 l 0.6384,-11 h 93.5 93.5 l 0.3211,15 c 0.1767,8.25 0.014,25.00536 -0.3608,37.23413 l -0.6819,22.23413 -27.1392,0.26587 -27.1392,0.26587 -0.2528,177.25 -0.2527,177.25 -13.2473,-0.15881 c -7.2859,-0.0874 -22.3211,-0.48694 -33.4114,-0.88798 z M 664.66651,695.40734 c -0.36482,-18.64904 -0.66402,-52.17125 -0.66491,-74.49381 -0.002,-43.66885 -1.06988,-113.17858 -1.72909,-112.51938 -0.51645,0.51646 -13.10411,54.12009 -33.37049,142.10585 -3.29382,14.3 -6.4096,27.0125 -6.92395,28.25 -0.92777,2.23213 -1.10181,2.25 -21.91809,2.25 h -20.98289 l -0.98634,-3.75 c -1.07632,-4.09214 -8.55574,-36.69398 -20.59019,-89.75 -11.33684,-49.98047 -18.59246,-80.92523 -19.09158,-81.42435 -0.24211,-0.24211 -0.0957,32.60433 0.32541,72.99208 0.42109,40.38775 0.76561,89.85005 0.76561,109.91623 v 36.48397 l -29.1325,0.36066 c -16.02288,0.19836 -29.36124,-0.0194 -29.6408,-0.48397 -0.59719,-0.99232 -3.21063,-365.21088 -2.6244,-365.74471 0.21874,-0.19918 16.55468,-0.52815 36.3021,-0.73103 L 550.3088,358.5 553.02207,369 c 1.4923,5.775 12.54996,50.2125 24.57259,98.75 12.02263,48.5375 22.1457,88.25 22.49572,88.25 0.35002,0 2.53235,-7.3125 4.84962,-16.25 2.31728,-8.9375 7.97174,-30.65 12.56547,-48.25 4.59373,-17.6 12.01077,-46.175 16.48232,-63.5 4.47155,-17.325 10.46716,-40.275 13.32357,-51 l 5.19348,-19.5 27.49758,-0.30685 c 15.12367,-0.16877 31.14808,-0.021 35.6098,0.32829 l 8.11221,0.63514 0.745,184.48116 c 0.40976,101.46464 0.54931,184.67685 0.31013,184.91603 -0.23918,0.23918 -13.71322,0.73323 -29.94231,1.09789 l -29.50745,0.66302 z m 640.33309,-19.1053 c -2e-4,-27.39112 -0.2997,-110.21454 -0.6654,-184.05204 L 1303.6691,358 h 70.0757 70.0757 l 0.6504,8.25 c 0.3577,4.5375 0.5106,16.35 0.3397,26.25 l -0.3106,18 -39.4667,0.30008 c -21.7068,0.16504 -39.5369,0.39004 -39.6225,0.5 -0.086,0.10996 -0.3818,19.49749 -0.658,43.0834 l -0.5023,42.88349 32.1247,-0.75147 c 17.6687,-0.41331 33.2498,-0.81087 34.6248,-0.88348 2.3397,-0.12356 2.4973,0.17254 2.4583,4.61798 -0.023,2.6125 -0.1354,18.0892 -0.25,34.39266 L 1433,564.28532 1399.75,563.89266 1366.5,563.5 l -0.2595,49.3499 -0.2595,49.34991 39.8936,-0.73476 39.8935,-0.73475 0.4456,31.38485 c 0.245,17.26167 0.1847,31.66646 -0.1341,32.01066 -0.3188,0.3442 -32.1921,0.93012 -70.8296,1.30204 l -70.25,0.67624 z" id="path3473"/>
  </g>
</svg>
