<?xml version="1.0" encoding="utf-8"?>
<!DOCTYPE svg PUBLIC "-//W3C//DTD SVG 20010904//EN" "http://www.w3.org/TR/2001/REC-SVG-20010904/DTD/svg10.dtd">
<svg xmlns="http://www.w3.org/2000/svg" version="1.0" width="3145px" height="1243px" viewBox="0 0 3145 1243" preserveAspectRatio="xMidYMid meet">
 <g fill="#fff200">
  <path d="M295.5 1231.5 c-23.7 -4.4 -33.9 -14.7 -31.4 -31.8 0.8 -6.2 11.4 -64.2 12.4 -68.4 0.5 -2.3 0.6 -2.3 20.5 -2.3 17.7 0 20 0.2 20 1.6 0 0.9 -2.8 16.6 -6.1 35 -4.1 22.3 -5.9 34.5 -5.5 36.8 1.5 7.7 7.5 11.6 18.1 11.6 7.6 0 11.3 -1.6 14.5 -6.1 3.3 -4.5 4.4 -9.2 10 -40.2 2.8 -15.5 5.5 -30.6 6.1 -33.4 l1 -5.3 9.6 0 c9.4 0 9.5 0 9 2.3 -0.3 1.2 -3.1 16.4 -6.2 33.7 -6.4 36.1 -7.8 43.2 -10 48.3 -3.5 8.5 -13 15.2 -25.7 18.2 -7.7 1.8 -26.6 1.8 -36.3 0z"/>
  <path d="M701.3 1231.5 c-16.2 -4.4 -25.3 -14.4 -25.3 -27.7 0 -7.7 7 -43.3 10 -50.8 4.7 -12 12.7 -19.3 25.5 -23.3 6.1 -1.9 9.2 -2.2 25 -2.2 23.9 0 33 2.3 41.9 10.5 6.5 6 8 10.7 7.4 22.7 -0.8 14.1 -7 42 -11.4 51 -5.3 11 -13.4 16.9 -27.3 19.9 -8.9 1.9 -38.7 1.8 -45.8 -0.1z m30.5 -19.8 c3 -3.2 3.6 -5.3 8.7 -30.6 6.2 -30.7 6 -33.5 -1.7 -34.7 -4.5 -0.8 -8.4 1 -10.7 4.7 -2 3.3 -11.2 47.9 -11.3 55 -0.1 5.6 2.3 7.9 8.2 7.9 3.6 0 5.2 -0.5 6.8 -2.3z"/>
  <path d="M2399.3 1232.1 c-15.2 -2.5 -26 -8.3 -31 -16.8 -2.6 -4.5 -2.8 -5.5 -2.8 -15.8 0 -9.2 0.6 -13.6 3.9 -27.5 2.1 -9.1 4.9 -18.8 6.2 -21.7 7 -14.8 25.9 -23.3 51.9 -23.3 24.4 0 42.1 8.3 46 21.4 1.9 6.2 1.9 8.1 -0.1 16.7 l-1.6 6.9 -16.4 0 c-18.7 0 -17.1 1 -15.4 -9.9 1.4 -8.4 0.1 -12.8 -4.6 -14.7 -7.9 -3.3 -16.1 -0.8 -19.3 5.9 -2.2 4.7 -10.1 45.9 -10.1 52.9 0 6.4 1.6 8 8.3 8.6 10.4 0.8 13 -2.8 16.2 -22 l0.6 -3.8 18.8 0 18.8 0 -0.9 5.3 c-1.6 8.5 -4.7 16.9 -8.3 22.3 -5 7.2 -11 11.3 -21 14.1 -5.9 1.7 -31.6 2.6 -39.2 1.4z"/>
  <path d="M2633 1231 c-4.7 -1 -10.6 -2.7 -13.2 -3.8 -9.2 -4.1 -16.7 -13.2 -16.8 -20.7 0 -1.6 3 -19.8 6.7 -40.2 l6.7 -37.3 20.3 0 c11.2 0 20.3 0.3 20.3 0.8 0 0.4 -2.7 15.3 -6 33.2 -3.3 17.9 -6 34.2 -6 36.3 0 9.5 6.4 14.9 17.5 14.8 3.4 0 7.3 -0.4 8.6 -0.9 3.6 -1.4 7.6 -5.9 9.4 -10.5 0.9 -2.3 4.4 -19.7 7.9 -38.7 l6.2 -34.5 9.6 -0.3 c8.8 -0.2 9.6 -0.1 9.2 1.5 -0.2 1 -3.3 18 -6.9 37.8 -7.3 40.9 -8.3 44.8 -12.8 50.7 -3.8 4.9 -12.8 9.9 -22.2 12.3 -8.3 2.1 -27.6 1.9 -38.5 -0.5z"/>
  <path d="M9.3 1228.8 c0.3 -1.3 4.4 -24.2 9.3 -51 l8.7 -48.8 20.5 0 20.4 0 -0.5 2.3 c-0.3 1.2 -1.7 8.7 -3.1 16.7 -1.5 8 -2.9 15.5 -3.1 16.8 -0.5 2.2 -0.4 2.2 9.5 2.2 9.5 0 10 -0.1 10.5 -2.2 0.2 -1.3 1.4 -7.5 2.5 -13.8 1.1 -6.3 2.5 -13.9 3.1 -16.7 l1 -5.3 20.5 0 20.4 0 -0.5 2.3 c-0.3 1.2 -4.3 23.4 -9 49.2 -4.8 25.9 -8.8 47.8 -9.1 48.8 -0.5 1.5 -2.3 1.7 -20.5 1.7 -18.3 0 -19.9 -0.1 -19.9 -1.7 0 -1 1.6 -10.3 3.5 -20.7 1.9 -10.4 3.5 -19.8 3.5 -20.8 0 -1.7 -0.8 -1.8 -9.7 -1.6 l-9.8 0.3 -3.9 22.3 -4 22.2 -20.4 0 -20.4 0 0.5 -2.2z"/>
  <path d="M135 1230.6 c0 -0.4 14.4 -30 37.7 -77.7 l11.6 -23.9 25.6 0.2 25.6 0.3 2.2 45.5 c1.2 25 2.2 47.9 2.2 50.8 l0.1 5.2 -20.5 0 -20.5 0 0 -7.9 c0 -4.3 -0.3 -9.3 -0.6 -11 l-0.6 -3.1 -15.7 0 -15.7 0 -5.4 11 -5.4 11 -10.3 0 c-5.7 0 -10.3 -0.2 -10.3 -0.4z m61.9 -49.3 c-0.1 -4.9 -0.4 -14 -0.8 -20.3 l-0.6 -11.5 -9.7 19.9 c-5.4 10.9 -9.8 20 -9.8 20.2 0 0.2 4.7 0.4 10.5 0.4 l10.5 0 -0.1 -8.7z"/>
  <path d="M411 1230.2 c0 -0.8 13.6 -76 14.6 -80.4 l0.6 -2.8 -15.6 0 c-13 0 -15.6 -0.2 -15.6 -1.5 0 -1.2 1 -6.9 2.6 -14.2 l0.4 -2.3 50.4 0 50.3 0 -1.6 9 -1.5 9 -14.2 0 c-10.4 0 -14.3 0.3 -14.6 1.3 -0.3 0.6 -3.8 19.5 -7.9 42 l-7.4 40.7 -20.2 0 c-11.2 0 -20.3 -0.3 -20.3 -0.8z"/>
  <path d="M543.2 1229.3 c0.3 -1 4.5 -24 9.3 -51.1 l8.9 -49.3 37.1 0.3 c41.4 0.4 43.6 0.7 51.6 7.6 6 5.2 7.9 9.9 7.9 20.3 0 18.1 -6.3 28.7 -19.8 33 -5.6 1.8 -10.1 2.3 -27.2 2.8 l-20.5 0.6 -1.6 9 c-0.9 5 -2.4 13.4 -3.4 18.8 l-1.7 9.7 -20.5 0 c-19.1 0 -20.5 -0.1 -20.1 -1.7z m64.8 -56.6 c4.5 -1.5 6.8 -6.2 7.7 -15.1 0.8 -9.1 -0.5 -10.6 -9.8 -10.6 -7.8 0 -6.8 -1.5 -9.5 13.5 -0.8 5 -1.8 10 -2.1 11.3 -0.5 2.1 -0.2 2.2 4.8 2.1 3 0 7 -0.5 8.9 -1.2z"/>
  <path d="M816.5 1228.8 c0.8 -3.8 14.5 -79.8 14.5 -80.8 0 -0.6 -6.3 -1 -15.6 -1 l-15.6 0 0.5 -2.2 c0.3 -1.3 1.1 -5.3 1.7 -9 l1.2 -6.8 50.5 0 50.5 0 -0.5 2.3 c-0.3 1.2 -1.1 5.2 -1.7 9 l-1.2 6.7 -14.4 0 c-7.9 0 -14.4 0.3 -14.4 0.6 0 0.4 -3.4 19 -7.5 41.4 -4.1 22.4 -7.5 41 -7.5 41.4 0 0.3 -9.2 0.6 -20.5 0.6 l-20.5 0 0.5 -2.2z"/>
  <path d="M909 1230 c0 -1.6 18 -100.4 18.4 -100.7 0.2 -0.2 19.8 -0.2 43.7 -0.1 l43.5 0.3 -1.5 8.3 -1.4 8.2 -23.3 0 -23.4 0 -0.4 2.3 c-1.4 6.1 -3.6 18 -3.6 18.8 0 0.5 7.2 0.9 16.1 0.9 l16.1 0 -0.6 2.8 c-0.3 1.5 -1.1 5.7 -1.7 9.5 l-1.1 6.7 -16.2 0 -16.3 0 -1.7 10.3 c-1 5.6 -2 11.2 -2.3 12.5 l-0.5 2.2 23.2 0 23.2 0 -0.5 2.3 c-0.4 1.2 -1.1 5.5 -1.8 9.5 l-1.2 7.2 -43.3 0 c-29.7 0 -43.4 -0.3 -43.4 -1z"/>
  <path d="M1021.3 1228.8 c0.3 -1.3 4.5 -24.2 9.3 -51 l8.8 -48.8 21 0 21.1 0 13 32.8 c7.6 19.2 13.1 31.9 13.4 30.7 0.2 -1.1 2.9 -15.7 6 -32.5 l5.6 -30.5 10.4 -0.3 10.3 -0.3 -0.5 2.8 c-0.3 1.5 -4.5 24.5 -9.3 51 l-8.8 48.3 -23.1 0 -23 0 -11.5 -29 c-6.3 -15.9 -11.7 -29 -12 -29 -0.3 0 -2.7 12.3 -5.4 27.3 -2.6 14.9 -5 28 -5.2 29 -0.5 1.5 -1.9 1.7 -10.6 1.7 -9.9 0 -10 0 -9.5 -2.2z"/>
  <path d="M1177.6 1229.3 c1.1 -4.8 14.4 -79.4 14.4 -80.7 0 -1.4 -2.1 -1.6 -15.6 -1.6 -12.5 0 -15.5 -0.3 -15.1 -1.3 0.3 -0.7 1.1 -4.8 1.7 -9 l1.3 -7.7 50.4 0 50.5 0 -0.6 3.8 c-0.4 2 -1.1 6.1 -1.7 9 l-1 5.2 -14.3 0 -14.2 0 -6.8 37.3 c-3.7 20.4 -7.2 39.3 -7.8 42 l-1 4.7 -20.3 0 c-18.8 0 -20.3 -0.1 -19.9 -1.7z"/>
  <path d="M1271 1230.3 c0 -0.9 15.6 -88.3 17.1 -96 l1 -5.3 20 0 19.9 0 -0.1 2.3 c0 1.2 -3.9 24 -8.8 50.7 l-8.7 48.5 -20.2 0.3 c-11.1 0.1 -20.2 -0.1 -20.2 -0.5z"/>
  <path d="M1340 1230.2 c0 -0.4 4.1 -23 9 -50.2 5 -27.2 9 -49.8 9 -50.2 0 -0.5 19.8 -0.8 44 -0.8 34.7 0 43.9 0.3 43.5 1.3 -0.2 0.6 -0.9 4.5 -1.5 8.5 l-1.2 7.2 -23.4 0 c-12.9 0 -23.4 0.2 -23.4 0.4 0 0.3 -0.6 3.5 -1.4 7.3 -0.8 3.7 -1.7 8.5 -2 10.6 l-0.7 3.7 16.1 0 16.2 0 -0.6 2.8 c-0.3 1.5 -1.1 5.7 -1.7 9.4 l-1.1 6.8 -16.1 0.2 -16.2 0.3 -1.7 8.5 c-0.9 4.7 -1.9 10.2 -2.2 12.3 l-0.6 3.7 23.1 0 23.1 0 -0.5 2.3 c-0.3 1.2 -1.1 5.5 -1.8 9.5 l-1.2 7.2 -43.4 0 c-23.8 0 -43.3 -0.3 -43.3 -0.8z"/>
  <path d="M1453.3 1228.3 c0.3 -1.6 4.5 -24.5 9.3 -51 l8.8 -48.3 20.4 0 20.4 0 -0.6 2.8 c-0.3 1.5 -3.5 19.1 -7.1 39.2 -3.6 20.1 -6.8 37.7 -7.1 39.3 l-0.6 2.7 21.1 0 c11.6 0 21.1 0.4 21.1 0.8 0 1 -1.8 11.6 -2.5 15 l-0.5 2.2 -41.6 0 -41.6 0 0.5 -2.7z"/>
  <path d="M1602 1230.5 c0 -1.5 18 -100.8 18.3 -101.2 0.2 -0.2 9.4 -0.2 20.3 -0.1 l20 0.3 -9.1 50.5 -9 50.5 -20.3 0.3 c-11.1 0.1 -20.2 0 -20.2 -0.3z"/>
  <path d="M1671.3 1229.3 c0.3 -1 4.5 -24 9.3 -51 l8.8 -49.3 21.2 0 21.1 0 12.9 32.6 c7 18 13 32.2 13.2 31.6 0.2 -0.6 2.9 -15.2 6.1 -32.4 l5.8 -31.3 10.1 -0.3 c5.6 -0.1 10.2 0.1 10.2 0.5 0 0.4 -4.1 23.4 -9.2 51.1 l-9.2 50.2 -23 -0.2 -23 -0.3 -11.5 -28.7 c-6.3 -15.9 -11.7 -28.8 -12.1 -28.8 -0.3 0 -2.8 12.9 -5.6 28.8 l-5 28.7 -10.3 0.3 c-9.4 0.2 -10.2 0.1 -9.8 -1.5z"/>
  <path d="M1834.6 1191.3 c4 -21.9 7.3 -40.8 7.4 -42 0 -2.2 -0.2 -2.3 -15.3 -2.5 l-15.3 -0.3 1.5 -8.5 1.6 -8.5 50.3 -0.3 c27.6 -0.1 50.2 0.2 50.2 0.6 0 1 -1.8 11.6 -2.5 15 -0.5 2.2 -0.8 2.2 -14.8 2.2 l-14.3 0 -7.3 40.8 c-4.1 22.4 -7.6 41.3 -7.9 42 -0.3 0.9 -5.4 1.2 -20.6 1.2 l-20.2 0 7.2 -39.7z"/>
  <path d="M1920.3 1228.8 c0.3 -1.3 4.5 -24.2 9.3 -51 l8.9 -48.8 43.7 0 c24.1 0 43.8 0.1 43.8 0.3 0 0.1 -0.7 3.7 -1.5 8 -0.8 4.3 -1.5 8.1 -1.5 8.3 0 0.2 -10.5 0.4 -23.4 0.4 l-23.4 0 -1.7 9.3 c-0.9 5 -1.8 10 -2.1 11 -0.5 1.6 0.7 1.7 15.6 1.7 l16.2 0 -0.7 4.8 c-0.4 2.6 -1.1 6.8 -1.7 9.4 l-1 4.8 -16.1 0.2 -16.1 0.3 -1.8 10 c-1 5.5 -2 11 -2.3 12.3 l-0.5 2.2 23 0 c12.6 0 23 0.3 23 0.8 0 0.4 -0.7 4.5 -1.5 9.2 -0.8 4.7 -1.5 8.6 -1.5 8.8 0 0.1 -19.6 0.2 -43.6 0.2 l-43.6 0 0.5 -2.2z"/>
  <path d="M2033.6 1227.3 c0.4 -2.1 4.6 -24.9 9.3 -50.8 l8.6 -47 20.3 -0.3 c15.8 -0.2 20.2 0 20.2 1 0 0.7 -3.3 19.4 -7.3 41.6 -4.1 22.1 -7.1 40.4 -6.9 40.7 0.3 0.3 9.7 0.5 20.9 0.5 l20.3 0 0 2.3 c-0.1 1.2 -0.6 5.1 -1.3 8.7 l-1.2 6.5 -41.8 0.3 -41.8 0.2 0.7 -3.7z"/>
  <path d="M2143.3 1228.8 c0.3 -1.3 4.5 -24.2 9.3 -51 l8.9 -48.8 20.2 0 c15.6 0 20.3 0.3 20.2 1.3 0 0.6 -3.3 19.2 -7.3 41.2 -4 22 -7.1 40.3 -6.9 40.8 0.2 0.4 9.6 0.7 20.9 0.7 18.8 0 20.4 0.1 20.3 1.8 0 0.9 -0.6 4.9 -1.2 8.7 l-1.2 7 -41.9 0.3 -41.8 0.2 0.5 -2.2z"/>
  <path d="M2252 1230 c0 -0.6 4.1 -23.3 9 -50.5 5 -27.2 9 -49.6 9 -50 0 -0.3 19.7 -0.5 43.8 -0.5 l43.8 0 -1.5 8.5 -1.4 8.5 -23.4 0 -23.3 0 -0.5 2.3 c-0.8 3.3 -3.5 18.1 -3.5 19 0 0.4 7.2 0.7 16.1 0.7 l16.1 0 -0.5 2.3 c-0.3 1.2 -1.1 5.5 -1.8 9.5 l-1.2 7.2 -16.2 0 -16.2 0 -1.7 9.8 c-0.9 5.3 -2 10.9 -2.3 12.5 l-0.5 2.7 23.2 0 23.2 0 -0.5 2.3 c-0.4 1.2 -1.1 5.5 -1.8 9.5 l-1.2 7.2 -43.3 0 c-29.7 0 -43.4 -0.3 -43.4 -1z"/>
  <path d="M2505 1229.5 c0 -0.8 3.2 -18.9 7 -40.2 3.9 -21.3 7 -39.6 7 -40.5 0 -1.6 -1.4 -1.8 -15.3 -1.8 l-15.4 0 1.6 -8.7 1.6 -8.8 50.3 -0.3 c43.5 -0.2 50.2 0 50.2 1.2 0 1.3 -1 6.9 -2.6 14.3 -0.4 2.2 -0.9 2.3 -14.7 2.5 l-14.2 0.3 -7.7 41.5 c-4.2 22.8 -7.7 41.6 -7.7 41.8 -0.1 0.1 -9.1 0.2 -20.1 0.2 -16.9 0 -20 -0.2 -20 -1.5z"/>
  <path d="M2724 1229.4 c0 -1.4 14.6 -82.9 17.1 -95.1 l1 -5.3 43.5 0 c37.7 0 43.4 0.2 43.4 1.5 0 0.8 -0.5 4.6 -1.2 8.5 l-1.2 7 -23.5 0.2 -23.5 0.3 -1.7 9 c-2.7 13.9 -4.4 12.5 14.2 12.5 14.8 0 16 0.1 15.5 1.8 -0.2 0.9 -1 5.2 -1.7 9.5 l-1.2 7.7 -16.2 0 -16.2 0 -1.7 9.3 c-0.9 5 -1.9 10.7 -2.2 12.5 l-0.6 3.2 23.2 0 c19.6 0 23.1 0.2 22.7 1.4 -0.3 0.8 -1.1 5.1 -1.8 9.5 l-1.2 8.1 -43.4 0 c-38.5 0 -43.3 -0.2 -43.3 -1.6z"/>
  <path d="M2837 1230.2 c0 -0.4 4.1 -23 9 -50.2 5 -27.2 9 -49.8 9 -50.2 0 -0.5 9.3 -0.8 20.6 -0.8 l20.6 0 -0.6 2.8 c-0.7 2.9 -14.6 80.3 -14.6 80.9 0 0.1 9.5 0.3 21.1 0.3 l21.1 0 -0.6 3.8 c-0.4 2 -1.1 6.1 -1.7 9 l-1 5.2 -41.5 0 c-22.8 0 -41.4 -0.3 -41.4 -0.8z"/>
  <path d="M6.3 1105.8 c0.3 -1.3 44.5 -245.5 98.2 -542.8 53.7 -297.3 98.5 -545.6 99.7 -551.8 l2 -11.2 220.9 0 220.9 0 -0.5 2.3 c-0.3 1.2 -17.2 93.5 -37.5 205.2 -20.4 111.7 -37.3 204.2 -37.6 205.8 l-0.6 2.7 109.1 0 109.1 0 0.5 -2.3 c0.6 -2.5 75.5 -412.6 75.5 -413.3 0 -0.2 99.7 -0.4 221.6 -0.4 l221.7 0 -0.6 4.3 c-1.3 8.9 -202.5 1102.8 -202.9 1103.3 -0.3 0.2 -99.7 0.3 -220.9 0.2 l-220.5 -0.3 43.2 -239 c23.7 -131.4 43.4 -240.7 43.8 -242.7 l0.7 -3.8 -109 0 c-102.9 0 -109 0.1 -109.5 1.8 -0.5 1.8 -85.6 482.3 -85.6 483.5 0 0.4 -99.5 0.7 -221.1 0.7 l-221.1 0 0.5 -2.2z"/>
  <path d="M1258.5 1105.8 c0.5 -2.1 195.7 -1082.7 198.5 -1099 l1.2 -6.8 346.6 0 c228.5 0 351.4 0.4 360.7 1 29.6 2.2 49.7 4.2 67 6.6 157.3 22 248.7 93.5 272.9 213.5 5.1 25.4 6.1 37.7 6.1 75.4 0 34.1 -0.9 51.7 -4.1 79 -9.8 83.7 -34.4 149.4 -74.8 199.5 -7.8 9.7 -27 28.9 -37 37 -59 47.7 -147.1 72.5 -288.1 81.2 -27.8 1.7 -126.9 1.4 -198.5 -0.5 -32.2 -0.9 -75.2 -1.9 -95.6 -2.3 l-37.2 -0.7 -1.1 5.4 c-0.6 3 -17.5 95.9 -37.6 206.4 -20.1 110.6 -36.8 202.2 -37.1 203.8 l-0.6 2.7 -220.9 0 -220.9 0 0.5 -2.2z m673.5 -622.2 c42.2 -6 67.5 -19 83.5 -43.1 13.1 -19.6 17.8 -34.8 27.5 -89 10.7 -59.1 12.4 -72.8 11.7 -89.7 -1.5 -35.2 -17 -56.2 -47.9 -65.2 -18.7 -5.4 -24.8 -5.9 -85.5 -6.3 -31 -0.3 -56.3 -0.1 -56.3 0.4 0 0.4 -11.7 66.2 -26 146.2 -14.3 80 -26 146.3 -26 147.4 0 1.8 1.3 1.9 53.3 1.5 43.5 -0.4 55.5 -0.8 65.7 -2.2z"/>
  <path d="M2500.6 1106.3 c0.2 -1 44.7 -249.3 98.9 -551.8 54.2 -302.5 98.7 -551 99 -552.3 l0.5 -2.2 220 0 c121 0 220 0.1 220 0.3 -0.1 0.1 -44.7 249.3 -99.3 553.7 l-99.2 553.5 -220.2 0.3 c-209.3 0.2 -220.1 0.1 -219.7 -1.5z"/>
 </g>
</svg>
